HIERARCHY
ROOT Hips
{
    OFFSET 0.000000 0.000000 0.000000
    CHANNELS 6 Xposition Yposition Zposition Zrotation Xrotation Yrotation
    JOINT Spine
    {
        OFFSET -0.000000 7.587367 0.000000
        CHANNELS 3 Zrotation Xrotation Yrotation
        JOINT Spine1
        {
            OFFSET -0.000000 21.665461 0.000000
            CHANNELS 3 Zrotation Xrotation Yrotation
            JOINT Neck
            {
                OFFSET -0.000000 21.576487 1.961499
                CHANNELS 3 Zrotation Xrotation Yrotation
                JOINT Head
                {
                    OFFSET -0.000000 12.954041 -1.850577
                    CHANNELS 3 Zrotation Xrotation Yrotation
                    End Site
                    {
                        OFFSET -0.000000 23.132217 0.000000
                    }
                }
            }
            JOINT LeftShoulder
            {
                OFFSET 3.736380 18.865139 -0.237605
                CHANNELS 3 Zrotation Xrotation Yrotation
                JOINT LeftArm
                {
                    OFFSET 13.340759 0.000000 0.000000
                    CHANNELS 3 Zrotation Xrotation Yrotation
                    JOINT LeftForeArm
                    {
                        OFFSET 34.199600 0.000000 0.000000
                        CHANNELS 3 Zrotation Xrotation Yrotation
                        JOINT LeftHand
                        {
                            OFFSET 18.347805 0.000000 0.000000
                            CHANNELS 3 Zrotation Xrotation Yrotation
                            End Site
                            {
                                OFFSET 13.879331 0.000000 0.000000
                            }
                        }
                    }
                }
            }
            JOINT RightShoulder
            {
                OFFSET -3.644239 18.865139 -0.237605
                CHANNELS 3 Zrotation Xrotation Yrotation
                JOINT RightArm
                {
                    OFFSET -13.340759 0.000000 0.000000
                    CHANNELS 3 Zrotation Xrotation Yrotation
                    JOINT RightForeArm
                    {
                        OFFSET -34.199600 0.000000 0.000000
                        CHANNELS 3 Zrotation Xrotation Yrotation
                        JOINT RightHand
                        {
                            OFFSET -18.347805 0.000000 0.000000
                            CHANNELS 3 Zrotation Xrotation Yrotation
                            End Site
                            {
                                OFFSET -13.879331 0.000000 0.000000
                            }
                        }
                    }
                }
            }
        }
    }
    JOINT LeftUpLeg
    {
        OFFSET 9.252887 0.000000 0.000000
        CHANNELS 3 Zrotation Xrotation Yrotation
        JOINT LeftLeg
        {
            OFFSET -0.000000 -37.275230 0.000000
            CHANNELS 3 Zrotation Xrotation Yrotation
            JOINT LeftFoot
            {
                OFFSET -0.000000 -38.159729 0.000000
                CHANNELS 3 Zrotation Xrotation Yrotation
                JOINT LeftToeBase
                {
                    OFFSET -0.000000 -6.014376 13.879331
                    CHANNELS 3 Zrotation Xrotation Yrotation
                    End Site
                    {
                        OFFSET -0.000000 0.000000 3.701154
                    }
                }
            }
        }
    }
    JOINT RightUpLeg
    {
        OFFSET -9.252887 0.000000 0.000000
        CHANNELS 3 Zrotation Xrotation Yrotation
        JOINT RightLeg
        {
            OFFSET -0.000000 -37.275230 0.000000
            CHANNELS 3 Zrotation Xrotation Yrotation
            JOINT RightFoot
            {
                OFFSET -0.000000 -38.159729 0.000000
                CHANNELS 3 Zrotation Xrotation Yrotation
                JOINT RightToeBase
                {
                    OFFSET -0.000000 -6.014376 13.879331
                    CHANNELS 3 Zrotation Xrotation Yrotation
                    End Site
                    {
                        OFFSET -0.000000 0.000000 3.701154
                    }
                }
            }
        }
    }
}
MOTION
Frames:    10
Frame Time:    0.010000
6.196539    73.952362    -22.045847    5.571994    -4.506609    -45.651127    -7.562978    -4.219045    0.174615    -2.762248    12.610199    0.759025    13.842198    4.973940    12.756271    -17.207542    14.022843    11.534417    13.359728    13.148046    0.137938    -45.539429    7.931265    -60.754501    39.500809    -32.256966    -94.206291    7.996164    12.031722    -6.787968    -4.487981    3.906115    -4.017234    0.000000    0.000000    0.000000    1.904101    -5.699254    150.724670    -56.565498    -19.433126    12.585447    21.783541    -18.363579    16.240046    -11.654164    26.216560    10.961481    -17.731125    -1.256042    15.697575    0.000000    0.000000    0.000000    -36.903271    7.119730    -15.281599    5.598059    2.132247    -7.724807    24.244291    -1.385550    -32.082340    0.000000    0.000000    0.000000    
6.186812    73.954758    -22.054743    5.570090    -4.476711    -45.597198    -7.578593    -4.195033    0.178209    -2.771697    12.587080    0.762074    13.866412    5.000154    12.763435    -17.257956    14.006594    11.539244    13.359540    13.129635    0.091717    -45.535534    7.904753    -60.657185    39.558773    -32.255226    -94.171112    7.874489    12.082767    -6.901316    -4.455563    3.917912    -4.006749    0.000000    0.000000    0.000000    1.910530    -5.660850    150.731567    -56.659756    -19.423256    12.564276    21.812254    -18.397188    16.277689    -11.639664    26.213049    10.930791    -17.707672    -1.209720    15.669891    0.000000    0.000000    0.000000    -36.859138    7.138103    -15.351555    5.586849    2.139338    -7.707051    24.329712    -1.420429    -32.076889    0.000000    0.000000    0.000000    
6.180500    73.954391    -22.063534    5.565964    -4.447672    -45.561783    -7.556626    -4.132876    0.172275    -2.821242    12.492965    0.754241    13.833702    5.055967    12.791255    -17.242666    13.990422    11.576714    13.305902    13.164180    0.109068    -45.437065    7.869149    -60.614460    39.628605    -32.271751    -94.087143    7.828814    12.080091    -7.031091    -4.434577    3.990477    -3.973405    0.000000    0.000000    0.000000    1.913157    -5.659591    150.739258    -56.739086    -19.449949    12.576744    21.848263    -18.429577    16.322634    -11.633095    26.224255    10.912027    -17.707905    -1.181281    15.637447    0.000000    0.000000    0.000000    -36.834553    7.150305    -15.339458    5.612350    2.142591    -7.692615    24.194727    -1.423916    -32.118896    0.000000    0.000000    0.000000    
6.173148    73.954788    -22.074024    5.568434    -4.414154    -45.525890    -7.577930    -4.129994    0.193149    -2.817662    12.501319    0.775445    13.865839    5.102231    12.781111    -17.318699    13.911475    11.554751    13.309804    13.159290    0.081624    -45.319901    7.762580    -60.816460    39.680779    -32.196083    -93.911079    7.859659    12.078272    -7.078783    -4.409532    3.996442    -4.001295    0.000000    0.000000    0.000000    1.864954    -5.730243    150.707184    -56.489517    -19.331413    12.636056    21.886728    -18.470383    16.348473    -11.636866    26.233181    10.868845    -17.757456    -1.169535    15.647595    0.000000    0.000000    0.000000    -36.797169    7.154544    -15.374537    5.613415    2.142272    -7.690579    24.202385    -1.445872    -32.126160    0.000000    0.000000    0.000000    
6.167084    73.954918    -22.082893    5.565810    -4.381739    -45.510281    -7.571487    -4.107965    0.222627    -2.850546    12.470090    0.806079    13.821734    5.081201    12.779922    -17.220798    13.950495    11.563437    13.313118    13.162440    0.042466    -45.235863    7.758096    -60.789715    39.766171    -32.254574    -93.789597    7.853804    12.011259    -7.231791    -4.385056    3.991607    -4.008906    0.000000    0.000000    0.000000    1.918825    -5.630029    150.691986    -56.992554    -19.347324    12.350127    21.930384    -18.495459    16.374718    -11.648555    26.239420    10.859666    -17.738585    -1.136631    15.648377    0.000000    0.000000    0.000000    -36.762608    7.152366    -15.375634    5.616567    2.132158    -7.680923    24.287611    -1.537509    -32.184498    0.000000    0.000000    0.000000    
6.156945    73.955605    -22.091911    5.570745    -4.349338    -45.485626    -7.561814    -4.066175    0.221069    -2.889021    12.394563    0.803761    13.761469    5.159049    12.761296    -17.182026    13.849713    11.545023    13.259234    13.230342    0.113481    -45.125961    7.727512    -60.823814    39.788727    -32.270893    -93.720963    7.883572    11.952837    -7.349312    -4.385695    4.064693    -3.984677    0.000000    0.000000    0.000000    1.899555    -5.677307    150.690231    -57.108421    -19.299305    12.277318    21.966854    -18.527977    16.384296    -11.660308    26.237219    10.859605    -17.759653    -1.120150    15.638516    0.000000    0.000000    0.000000    -36.719959    7.154755    -15.402621    5.602316    2.118118    -7.706760    24.216110    -1.463268    -32.117535    0.000000    0.000000    0.000000    
6.150077    73.955154    -22.100334    5.567560    -4.322711    -45.471874    -7.475569    -4.052473    0.199511    -3.061087    12.418258    0.797618    13.722888    5.124274    12.795145    -17.124706    13.817511    11.576329    13.253727    13.182061    0.249595    -44.907177    7.860702    -60.823418    40.034679    -32.518147    -93.417877    7.798591    11.728496    -7.556811    -4.365268    4.045808    -3.910934    0.000000    0.000000    0.000000    1.886436    -5.704145    150.691696    -57.105110    -19.251667    12.228484    22.002392    -18.545799    16.374729    -11.681672    26.226379    10.884954    -17.747734    -1.101319    15.636778    0.000000    0.000000    0.000000    -36.687065    7.161120    -15.395806    5.605262    2.097494    -7.696856    24.189291    -1.442895    -32.082603    0.000000    0.000000    0.000000    
6.140465    73.956985    -22.107628    5.576486    -4.295751    -45.456367    -7.568284    -4.080769    0.259051    -2.932514    12.483150    0.850017    13.736439    5.119531    12.751103    -17.227392    13.765999    11.518010    13.246723    13.180408    0.182213    -44.920513    7.822270    -60.891113    40.020504    -32.560165    -93.371590    7.703359    11.609323    -7.792943    -4.402833    3.997286    -4.011563    0.000000    0.000000    0.000000    1.886746    -5.693549    150.667786    -56.871387    -19.240738    12.294652    22.027531    -18.570814    16.380058    -11.688403    26.224281    10.899275    -17.722399    -1.079571    15.626121    0.000000    0.000000    0.000000    -36.660614    7.165574    -15.388225    5.609103    2.074210    -7.716444    24.248423    -1.499163    -32.152355    0.000000    0.000000    0.000000    
6.132738    73.956635    -22.114965    5.592525    -4.267212    -45.433357    -7.505663    -4.031933    0.229102    -3.079697    12.381558    0.827922    13.752043    5.185623    12.793481    -17.265579    13.735254    11.563570    13.194851    13.224095    0.303224    -44.787373    7.808487    -60.847725    40.036102    -32.656567    -93.328125    7.581357    11.476856    -7.968374    -4.400559    4.016949    -3.886059    0.000000    0.000000    0.000000    1.863604    -5.641615    150.665070    -56.506405    -19.215546    12.598727    22.047441    -18.610178    16.368271    -11.701959    26.221704    10.909794    -17.729452    -1.061043    15.629616    0.000000    0.000000    0.000000    -36.638466    7.176005    -15.383547    5.620354    2.041843    -7.701752    24.193844    -1.517892    -32.192711    0.000000    0.000000    0.000000    
6.127197    73.956360    -22.121380    5.602829    -4.241936    -45.426773    -7.513211    -4.040131    0.252383    -3.097642    12.414382    0.854928    13.745604    5.176928    12.790476    -17.292339    13.695251    11.553178    13.201258    13.180670    0.327853    -44.766487    7.812095    -60.836308    39.997684    -32.716534    -93.305382    7.627077    11.314173    -8.218705    -4.408859    3.982564    -3.911504    0.000000    0.000000    0.000000    1.858243    -5.647637    150.648895    -56.415691    -19.167974    12.563821    22.065607    -18.635592    16.377872    -11.697019    26.221703    10.923657    -17.736879    -1.046964    15.605882    0.000000    0.000000    0.000000    -36.624725    7.172570    -15.334587    5.637846    2.017164    -7.725352    24.147593    -1.500192    -32.165264    0.000000    0.000000    0.000000    
